<svg width="1200" height="680" viewBox="0 0 1200 680" fill="none" xmlns="http://www.w3.org/2000/svg">
  <rect width="1200" height="680" rx="28" fill="#F8FBF8"/>
  <rect x="40" y="40" width="1120" height="600" rx="24" fill="#FFFFFF" stroke="#DCE7DF" stroke-width="4"/>
  <rect x="94" y="254" width="160" height="120" rx="24" fill="#F5F8F4" stroke="#DCE7DF" stroke-width="4"/>
  <rect x="342" y="254" width="196" height="120" rx="24" fill="#F5F8F4" stroke="#DCE7DF" stroke-width="4"/>
  <rect x="626" y="254" width="196" height="120" rx="24" fill="#F5F8F4" stroke="#DCE7DF" stroke-width="4"/>
  <rect x="910" y="254" width="196" height="120" rx="24" fill="#F5F8F4" stroke="#DCE7DF" stroke-width="4"/>
  <rect x="342" y="458" width="196" height="96" rx="20" fill="#FFFFFF" stroke="#DCE7DF" stroke-width="4"/>
  <rect x="626" y="458" width="196" height="96" rx="20" fill="#FFFFFF" stroke="#DCE7DF" stroke-width="4"/>
  <path d="M254 314H342" stroke="#2D6A4F" stroke-width="10" stroke-linecap="round"/>
  <path d="M538 314H626" stroke="#2D6A4F" stroke-width="10" stroke-linecap="round"/>
  <path d="M822 314H910" stroke="#2D6A4F" stroke-width="10" stroke-linecap="round"/>
  <path d="M440 374V458" stroke="#78A38B" stroke-width="8" stroke-linecap="round"/>
  <path d="M724 374V458" stroke="#78A38B" stroke-width="8" stroke-linecap="round"/>
  <text x="130" y="324" fill="#173224" font-size="28" font-family="Arial, sans-serif" font-weight="700">Client</text>
  <text x="378" y="304" fill="#173224" font-size="28" font-family="Arial, sans-serif" font-weight="700">Gateway</text>
  <text x="376" y="340" fill="#5F786B" font-size="22" font-family="Arial, sans-serif">Auth / Routing / Rate Limit</text>
  <text x="662" y="304" fill="#173224" font-size="28" font-family="Arial, sans-serif" font-weight="700">Retriever</text>
  <text x="652" y="340" fill="#5F786B" font-size="22" font-family="Arial, sans-serif">Embedding / Vector DB</text>
  <text x="968" y="304" fill="#173224" font-size="28" font-family="Arial, sans-serif" font-weight="700">LLM Serving</text>
  <text x="950" y="340" fill="#5F786B" font-size="22" font-family="Arial, sans-serif">Scheduler / KV Cache</text>
  <text x="372" y="514" fill="#173224" font-size="24" font-family="Arial, sans-serif" font-weight="700">Observability</text>
  <text x="368" y="546" fill="#5F786B" font-size="20" font-family="Arial, sans-serif">Tracing / Metrics / Logs</text>
  <text x="672" y="514" fill="#173224" font-size="24" font-family="Arial, sans-serif" font-weight="700">Governance</text>
  <text x="660" y="546" fill="#5F786B" font-size="20" font-family="Arial, sans-serif">SLO / Capacity / Release</text>
  <text x="92" y="118" fill="#2D6A4F" font-size="34" font-family="Arial, sans-serif" font-weight="700">LLM Serving Overview</text>
  <text x="92" y="160" fill="#5F786B" font-size="22" font-family="Arial, sans-serif">A simple sample diagram stored in static/img and rendered from Markdown.</text>
</svg>
